<svg id="Capa_1" enable-background="new 0 0 512 512" height="512" viewBox="0 0 512 512" width="512" xmlns="http://www.w3.org/2000/svg" xmlns:xlink="http://www.w3.org/1999/xlink"><linearGradient id="SVGID_1_" gradientUnits="userSpaceOnUse" x1="256" x2="256" y1="491" y2="21"><stop offset="0" stop-color="#fd5900"/><stop offset="1" stop-color="#ffde00"/></linearGradient><g><path d="m496.996 121h-367.477l-11.464-63.049c-3.892-21.411-22.513-36.951-44.274-36.951h-58.781c-8.284 0-15 6.716-15 15s6.716 15 15 15h58.781c7.254 0 13.46 5.18 14.758 12.317l52.102 286.561-43.011 34.409c-3.559 2.847-5.63 7.156-5.63 11.713v50c0 8.284 6.716 15 15 15h57.58c6.192 17.459 22.865 30 42.42 30s36.228-12.541 42.42-30h115.16c6.192 17.459 22.865 30 42.42 30s36.228-12.541 42.42-30h27.58c8.284 0 15-6.716 15-15s-6.716-15-15-15h-27.58c-6.192-17.459-22.865-30-42.42-30s-36.228 12.541-42.42 30h-115.16c-6.192-17.459-22.865-30-42.42-30s-36.228 12.541-42.42 30h-42.58v-27.791l40.262-32.209h314.738c8.284 0 15-6.716 15-15s-6.716-15-15-15h-2.032l36.785-202.317c1.675-9.207-5.399-17.683-14.757-17.683zm-89.996 310c8.271 0 15 6.729 15 15s-6.729 15-15 15-15-6.729-15-15 6.729-15 15-15zm-200 0c8.271 0 15 6.729 15 15s-6.729 15-15 15-15-6.729-15-15 6.729-15 15-15zm237.477-90h-274.958l-34.546-190h344.048zm-55.215-44.641 11.005-100.001c.906-8.234 8.316-14.175 16.55-13.269h.001c8.234.906 14.175 8.316 13.269 16.551l-11.005 100.001c-.906 8.234-8.316 14.175-16.55 13.269h-.001c-8.234-.906-14.175-8.316-13.269-16.551zm-192.08-113.269c8.234-.906 15.644 5.035 16.551 13.269l11.005 100.001c.906 8.235-5.035 15.645-13.269 16.551-8.234.906-15.644-5.035-16.55-13.269l-11.006-100.002c-.906-8.234 5.034-15.644 13.269-16.55zm63.141 115.448-3.589-100c-.297-8.279 6.173-15.231 14.452-15.528 8.279-.297 15.231 6.173 15.528 14.452l3.589 100c.297 8.279-6.173 15.231-14.452 15.528-8.278.297-15.231-6.173-15.528-14.452zm63.373-1.076 3.589-100c.297-8.279 7.25-14.749 15.528-14.452 8.279.297 14.749 7.249 14.452 15.528l-3.589 100c-.297 8.279-7.25 14.749-15.528 14.452-8.278-.297-14.749-7.249-14.452-15.528z" fill="url(#SVGID_1_)"/></g></svg>