<?xml version="1.0" encoding="iso-8859-1"?>
<!-- Generator: Adobe Illustrator 19.0.0, SVG Export Plug-In . SVG Version: 6.00 Build 0)  -->
<svg version="1.1" id="Capa_1" xmlns="http://www.w3.org/2000/svg" xmlns:xlink="http://www.w3.org/1999/xlink" x="0px" y="0px"
	 viewBox="0 0 512 512" style="enable-background:new 0 0 512 512;" xml:space="preserve">
<circle style="fill:#FFD400;" cx="256" cy="256" r="256"/>
<path style="fill:#FF9F00;" d="M512,256c0-7.241-0.317-14.407-0.906-21.496L413,136.41l-240.406,19l-18.398-19L99,191.605l37,36.797
	l-37,55.195l37,36.797L99,375.59l135.504,135.504C241.593,511.683,248.759,512,256,512C397.385,512,512,397.385,512,256z"/>
<g>
	<path style="fill:#5A5A5A;" d="M172.594,136.41v55.195H413V136.41H172.594z"/>
	<path style="fill:#5A5A5A;" d="M99,136.41v55.195h55.195V136.41H99z"/>
</g>
<g>
	<rect x="99" y="164.01" style="fill:#444444;" width="55.2" height="27.598"/>
	<rect x="172.59" y="164.01" style="fill:#444444;" width="240.41" height="27.598"/>
</g>
<g>
	<path style="fill:#5A5A5A;" d="M172.594,228.402v55.195H413v-55.195L172.594,228.402L172.594,228.402z"/>
	<path style="fill:#5A5A5A;" d="M99,228.402v55.195h55.195v-55.195L99,228.402L99,228.402z"/>
</g>
<g>
	<rect x="99" y="256" style="fill:#444444;" width="55.2" height="27.598"/>
	<rect x="172.59" y="256" style="fill:#444444;" width="240.41" height="27.598"/>
</g>
<g>
	<path style="fill:#5A5A5A;" d="M172.594,320.395v55.195H413v-55.195H172.594z"/>
	<path style="fill:#5A5A5A;" d="M99,320.395v55.195h55.195v-55.195H99z"/>
</g>
<g>
	<rect x="99" y="347.99" style="fill:#444444;" width="55.2" height="27.598"/>
	<rect x="172.59" y="347.99" style="fill:#444444;" width="240.41" height="27.598"/>
</g>
<g>
</g>
<g>
</g>
<g>
</g>
<g>
</g>
<g>
</g>
<g>
</g>
<g>
</g>
<g>
</g>
<g>
</g>
<g>
</g>
<g>
</g>
<g>
</g>
<g>
</g>
<g>
</g>
<g>
</g>
</svg>
